<svg xmlns="http://www.w3.org/2000/svg" viewBox="0 0 197.57 27.14"><g id="Layer_2" data-name="Layer 2"><g id="Layer_1-2" data-name="Layer 1"><path d="M12.89,6V27.14H5.83V6H0V0H18.72V6Z"/><path d="M36.72,6H28.33v4.53h8v6h-8v4.68h8.39v6H21.28V0H36.72Z"/><path d="M39.46,27.14,44.06,0H51l5.51,14.51L62.35,0h7l4.11,27.14H66.42l-2-15.62h-.07L57.85,27.14H55L48.82,11.52h-.08L46.48,27.14Z"/><path d="M76.46,27.14V0h10.8a10.93,10.93,0,0,1,7.22,2.21q2.65,2.22,2.65,6.72,0,9.21-9.62,9.21h-4v9ZM83.52,5.69v6.77h1.19l1.53,0a7.54,7.54,0,0,0,1.33-.2,2.94,2.94,0,0,0,1.2-.5,2.76,2.76,0,0,0,.71-1,3.84,3.84,0,0,0,.3-1.62,4.07,4.07,0,0,0-.29-1.67,3,3,0,0,0-.68-1,2.45,2.45,0,0,0-1.17-.52,10.54,10.54,0,0,0-1.33-.2c-.37,0-.91,0-1.6,0Z"/><path d="M107.32,0V21.17h8.46v6H100.26V0Z"/><path d="M134.71,22.43H125l-1.87,4.71h-7.49L126.07,0h7.7L144,27.14h-7.53ZM132.8,17l-2.88-8.64h-.07L126.93,17Z"/><path d="M156.17,21.17h11.37v6H144.29L157.14,6H146.48V0H169Z"/><path d="M188.28,22.43h-9.72l-1.87,4.71H169.2L179.64,0h7.7l10.23,27.14H190ZM186.37,17l-2.88-8.64h-.07L180.5,17Z"/></g></g></svg>