<svg xmlns="http://www.w3.org/2000/svg" xmlns:xlink="http://www.w3.org/1999/xlink" width="140" height="97" viewBox="0 0 140 97">
  <defs>
    <clipPath id="clip-path">
      <rect width="52" height="2" fill="none"/>
    </clipPath>
    <clipPath id="clip-horizontal-stacked">
      <rect width="140" height="97"/>
    </clipPath>
  </defs>
  <g id="horizontal-stacked" clip-path="url(#clip-horizontal-stacked)">
    <rect width="140" height="97" fill="#fff"/>
    <rect id="Rectangle_4" data-name="Rectangle 4" width="140" height="40" fill="#efe9f8"/>
    <g id="Group_14" data-name="Group 14" transform="translate(-1 -8.7)">
      <line id="Line_1" data-name="Line 1" x2="130.3" transform="translate(-4 48.7)" fill="none" stroke="#8e2de2" stroke-width="1"/>
      <line id="Line_2" data-name="Line 2" x2="12.5" transform="translate(132.9 48.7)" fill="none" stroke="#8e2de2" stroke-width="1"/>
    </g>
    <g id="Rectangle_3" data-name="Rectangle 3" transform="translate(10 16)" fill="#fff" stroke="#8e2de2" stroke-width="1">
      <rect width="22" height="8" stroke="none"/>
      <rect x="0.5" y="0.5" width="21" height="7" fill="none"/>
    </g>
    <rect id="Rectangle_5" data-name="Rectangle 5" width="0.5" height="40" transform="translate(42)" fill="#8e2de2"/>
    <g id="Group_15" data-name="Group 15">
      <g id="Repeat_Grid_1" data-name="Repeat Grid 1" transform="translate(53 26)" clip-path="url(#clip-path)">
        <g transform="translate(-53 -26)">
          <rect id="Rectangle_6" data-name="Rectangle 6" width="10" height="2" transform="translate(53 26)" fill="#8e2de2"/>
        </g>
        <g transform="translate(-39 -26)">
          <rect id="Rectangle_6-2" data-name="Rectangle 6" width="10" height="2" transform="translate(53 26)" fill="#8e2de2"/>
        </g>
        <g transform="translate(-25 -26)">
          <rect id="Rectangle_6-3" data-name="Rectangle 6" width="10" height="2" transform="translate(53 26)" fill="#8e2de2"/>
        </g>
        <g transform="translate(-11 -26)">
          <rect id="Rectangle_6-4" data-name="Rectangle 6" width="10" height="2" transform="translate(53 26)" fill="#8e2de2"/>
        </g>
      </g>
    </g>
    <g id="Group_16" data-name="Group 16">
      <text id="_1" data-name="1" transform="translate(52 11)" fill="#8e2de2" font-size="10" font-family="Helvetica"><tspan x="0" y="0">1</tspan></text>
      <text id="_2" data-name="2" transform="translate(130 11)" fill="#8e2de2" font-size="10" font-family="Helvetica"><tspan x="0" y="0">2</tspan></text>
      <rect id="Rectangle_7" data-name="Rectangle 7" width="98.5" height="0.5" transform="translate(42 15)" fill="#8e2de2"/>
    </g>
  </g>
</svg>
